# xmcd
#
# Track frame offsets: 
#        150
#        15855
#        28846
#        36760
#        51248
#        57124
#        83120
#        90823
#        108859
#        127155
#        145121
#        163677
#        179553
#        192164
#
# Disc length: 2832 seconds
#
# Revision: 0
# Processed by: cddbd v1.5.2PL0 Copyright (c) Steve Scherf et al.
# Submitted via: ExactAudioCopyFreeDBPlugin 1.0
#
DISCID=ae0b0e0e
DTITLE=Jeremy Lyons and the Deltabilly Boys - Death of a Street Singer
DYEAR=2007
DGENRE=Delta Blues
TTITLE0=Drop Out Mambo
TTITLE1=I Just Don't Care
TTITLE2=Full Deck
TTITLE3=What Do You Do
TTITLE4=Mr. So 'n' So
TTITLE5=Jackson Sq. Massacree
TTITLE6=Chromag Rag
TTITLE7=Under a Sleeve
TTITLE8=Ostrich
TTITLE9=Streets of Blues
TTITLE10=Tuesday Morning Drag
TTITLE11=Sorry About That
TTITLE12=My Love Ain't No Train
TTITLE13=Sweet Shop Baby
EXTD=
EXTT0=
EXTT1=
EXTT2=
EXTT3=
EXTT4=
EXTT5=
EXTT6=
EXTT7=
EXTT8=
EXTT9=
EXTT10=
EXTT11=
EXTT12=
EXTT13=
PLAYORDER=
